<?xml version="1.0" encoding="utf-8"?>
<!-- Generator: Adobe Illustrator 19.0.0, SVG Export Plug-In . SVG Version: 6.00 Build 0)  -->
<svg version="1.1" id="Layer_1" xmlns="http://www.w3.org/2000/svg" xmlns:xlink="http://www.w3.org/1999/xlink" x="0px" y="0px"
	 viewBox="0 0 152.06459 149.31981" style="enable-background:new 0 0 152.06459 149.31981;" xml:space="preserve">
<style type="text/css">
	.st0{fill:none;stroke:#010005;stroke-width:0.216;stroke-miterlimit:22.9256;}
	.st1{fill-rule:evenodd;clip-rule:evenodd;}
</style>
<g>
	<path class="st0" d="M131.9142,49.43511c3.18359,1.374,5.89659,3.3041,8.1371,5.7932
		c5.03749,5.5593,7.53909,13.6547,7.53909,24.3547"/>
	<line class="st0" x1="55.1934" y1="36.05761" x2="55.0281" y2="67.43311"/>
	<line class="st0" x1="46.5854" y1="49.41301" x2="70.6538" y2="49.41301"/>
	<line class="st0" x1="147.606" y1="149.31921" x2="147.606" y2="129.46172"/>
	<line class="st0" x1="152.06459" y1="141.18661" x2="137.5739" y2="141.18661"/>
	<line class="st0" x1="55.0477" y1="128.76041" x2="55.0477" y2="149.31981"/>
	<line class="st0" x1="54.1216" y1="141.21301" x2="58.0742" y2="141.20251"/>
</g>
<path class="st1" d="M114.57349,95.43891c-0.6324,12.196-5.69109,21.4018-13.1187,29.4828
	c-2.8638,3.11559-6.0953,5.7331-9.5199,8.03739c-3.7372,2.51521-3.5424,2.84451-3.5424-3.5235V96.17902
	c0-6.1594,1.4933-11.6481,4.4929-15.3992c2.984-3.7313,7.1209-5.2047,12.6323-4.6701c3.1992,0.3107,5.4666,1.4967,7.2763,4.0686
	c0.2627,0.3733,0.5042,0.8991,0.7168,1.4839c0.3691,1.0148,0.5913,1.9641,0.7308,2.901
	C114.6963,87.61781,114.7346,92.33351,114.57349,95.43891L114.57349,95.43891z M85.951,53.98412V3.53031
	c0.0048-1.9471,1.6982-3.5357,3.53111-3.5303h22.16949c1.9259,0.0009,3.528,1.5996,3.5283,3.5303l0.0022,38.6124
	c-0.0754,2.338-1.0839,3.1028-3.5413,3.532c-4.0671,0.6562-7.9336,1.9712-11.5826,3.9339
	c-3.6536,1.9652-7.187,4.6083-10.5772,7.9276C85.9513,61.15781,85.9513,60.44661,85.951,53.98412L85.951,53.98412z M32.3291,3.53031
	v71.7707c0,12.0997,2.2428,21.15321,6.6787,27.1669c3.0223,4.09721,6.1008,6.8054,10.882,8.1142
	c2.3442,0.7223,3.5328,1.5545,3.5197,3.5093v23.64861c0,2.1382-1.3189,3.73239-3.5291,3.53169
	c-15.0281-1.14751-25.7972-6.5486-34.7148-16.2193C5.0587,114.09142,0,98.66071,0,78.81761V3.52581
	c0.0023-1.9684,1.6143-3.5224,3.5289-3.5258h25.2728C30.767,0.00171,32.3291,1.62741,32.3291,3.53031z"/>
</svg>
